<svg xmlns="http://www.w3.org/2000/svg" width="1280" height="698" viewBox="0 0 1280 698">
<g>
<path d="M 0.00 0.00 L 1280.00 0.00 L 1280.00 698.00 L 0.00 698.00 ZM 499.83 410.59 L 500.00 477.68 L 505.75 476.88 C508.91,476.44 523.88,474.47 539.00,472.50 C554.12,470.53 571.22,468.27 577.00,467.48 C582.78,466.69 603.03,464.00 622.00,461.50 C640.97,459.00 657.80,456.69 659.39,456.37 L 662.28 455.78 L 661.67 338.64 C661.15,239.70 660.82,220.10 659.51,212.50 C655.66,189.97 646.60,171.52 632.50,157.50 C623.92,148.96 616.99,144.33 607.43,140.76 C602.31,138.84 599.52,138.54 587.00,138.54 C573.70,138.53 571.84,138.76 564.60,141.31 C552.87,145.44 543.63,151.40 533.38,161.50 C516.94,177.68 506.68,197.46 501.99,222.00 C500.39,230.35 500.14,238.26 499.92,287.50 C499.78,318.30 499.74,373.69 499.83,410.59 ZM 445.00 476.75 C445.00,477.71 449.97,478.00 466.50,478.00 L 488.00 478.00 L 488.00 361.25 C488.01,286.25 488.39,240.42 489.08,233.10 C495.46,164.96 549.40,115.46 617.00,115.71 C638.84,115.80 662.13,122.01 678.94,132.25 C710.83,151.67 731.35,179.28 739.68,214.00 C742.94,227.55 743.05,232.43 743.30,369.50 L 743.50 477.50 L 789.75 477.76 L 836.00 478.02 L 836.00 340.04 L 833.75 339.58 C832.51,339.33 829.52,338.90 827.09,338.64 C824.67,338.37 819.27,336.46 815.09,334.40 C804.97,329.40 797.55,321.92 792.43,311.56 L 788.50 303.61 L 787.88 265.06 C787.30,229.11 787.08,225.59 784.66,213.00 C780.11,189.41 771.39,166.99 759.95,149.50 C742.45,122.75 721.34,103.57 694.00,89.60 C678.63,81.74 667.49,77.76 651.10,74.26 C639.59,71.81 636.55,71.57 616.00,71.54 C591.25,71.50 581.95,72.82 562.56,79.13 C552.74,82.33 533.51,91.22 525.50,96.27 C483.97,122.43 454.00,167.89 446.90,215.48 C445.06,227.84 444.96,234.79 444.98,352.00 C444.99,419.92 445.00,476.06 445.00,476.75 ZM 976.06 621.44 C1003.82,627.47 1031.16,611.60 1036.51,586.36 C1038.46,577.17 1038.37,570.78 1036.17,562.86 C1031.70,546.75 1021.21,536.18 1004.00,530.44 C995.96,527.77 979.71,528.02 971.00,530.96 C962.29,533.90 957.00,537.09 951.12,542.97 C938.42,555.67 934.58,576.02 941.59,593.47 C943.79,598.95 945.88,601.94 951.44,607.55 C959.29,615.47 966.02,619.27 976.06,621.44 ZM 391.41 621.58 C403.58,624.36 419.53,621.88 430.41,615.50 C435.79,612.35 445.25,602.38 448.02,596.95 C457.07,579.23 453.50,556.62 439.42,542.35 C430.18,533.00 418.31,528.61 402.50,528.71 C387.11,528.81 376.05,533.24 366.33,543.20 C340.72,569.44 354.72,613.20 391.41,621.58 ZM 473.71 621.38 C474.10,621.77 477.14,621.95 480.46,621.79 L 486.50 621.50 L 486.78 607.00 L 487.05 592.50 L 501.58 592.67 L 516.10 592.83 L 521.20 600.17 C524.00,604.20 528.48,610.49 531.16,614.13 L 536.02 620.77 L 542.76 621.24 C546.47,621.50 549.87,621.39 550.33,620.98 C550.79,620.57 546.71,614.00 541.26,606.37 C535.82,598.74 531.05,591.96 530.66,591.31 C530.21,590.56 531.54,589.18 534.23,587.60 C544.25,581.73 549.35,572.97 549.42,561.50 C549.50,547.48 543.32,537.67 531.41,532.90 C525.81,530.65 524.12,530.51 499.25,530.20 L 473.00 529.88 L 473.00 575.27 C473.00,600.24 473.32,620.99 473.71,621.38 ZM 1058.75 621.42 C1059.16,621.84 1061.07,621.92 1063.00,621.60 C1064.93,621.28 1067.74,621.02 1069.25,621.01 L 1072.00 621.00 L 1072.00 593.00 L 1085.00 592.85 C1092.15,592.77 1098.54,592.66 1099.19,592.60 C1099.85,592.54 1104.36,598.12 1109.23,605.00 C1114.10,611.88 1118.69,618.31 1119.42,619.29 C1120.53,620.80 1121.98,621.04 1128.31,620.79 L 1135.86 620.50 L 1124.84 605.18 C1118.78,596.75 1113.97,589.77 1114.16,589.68 C1114.35,589.58 1116.28,588.60 1118.45,587.50 C1123.86,584.76 1128.84,579.58 1131.35,574.09 C1132.98,570.51 1133.44,567.51 1133.44,560.50 C1133.43,552.72 1133.07,550.81 1130.78,546.41 C1127.41,539.94 1122.71,535.83 1115.33,532.87 C1109.84,530.67 1107.99,530.51 1083.75,530.20 L 1058.00 529.88 L 1058.00 575.27 C1058.00,600.24 1058.34,621.01 1058.75,621.42 ZM 263.71 621.37 C264.10,621.76 267.36,621.95 270.96,621.79 L 277.50 621.50 L 277.78 607.25 L 278.05 593.00 L 289.78 592.97 C313.54,592.91 324.58,589.74 332.47,580.71 C337.67,574.76 339.54,569.02 339.38,559.44 C339.17,546.92 332.67,537.41 321.17,532.82 C315.89,530.72 313.71,530.54 289.25,530.21 L 263.00 529.85 L 263.00 575.26 C263.00,600.23 263.32,620.99 263.71,621.37 ZM 414.14 608.57 C407.79,610.50 397.57,610.30 391.30,608.14 C376.60,603.06 367.71,590.57 367.71,575.01 C367.71,567.06 369.19,562.14 373.59,555.50 C383.64,540.35 407.38,536.33 423.96,546.97 C433.51,553.10 438.24,562.47 438.37,575.50 C438.44,582.25 438.01,584.44 435.67,589.50 C431.25,599.05 423.81,605.63 414.14,608.57 ZM 1003.26 607.14 C997.15,609.81 983.32,610.59 977.29,608.61 C966.93,605.22 959.66,598.80 955.12,589.05 C953.00,584.47 952.54,582.01 952.52,575.00 C952.50,567.63 952.88,565.72 955.39,560.61 C961.04,549.11 970.90,542.48 984.00,541.38 C997.61,540.24 1009.52,544.98 1016.73,554.42 C1021.44,560.58 1023.13,566.22 1023.13,575.73 C1023.13,582.52 1022.65,585.03 1020.43,589.97 C1017.25,597.05 1010.19,604.12 1003.26,607.14 ZM 1155.63 619.00 L 1156.15 621.50 L 1173.33 621.47 C1182.77,621.46 1198.49,621.35 1208.25,621.22 L 1226.00 621.00 L 1226.00 608.80 L 1198.00 609.15 L 1170.00 609.51 L 1170.00 580.00 L 1218.00 580.00 L 1218.00 574.25 L 1218.00 568.50 L 1170.50 568.50 L 1170.22 555.27 L 1169.94 542.03 L 1196.72 541.77 L 1223.50 541.50 L 1224.16 530.00 L 1156.23 530.00 L 1155.67 532.75 C1154.97,536.22 1154.93,615.62 1155.63,619.00 ZM 136.00 530.00 L 136.00 621.98 L 171.04 621.74 L 206.08 621.50 L 205.79 615.50 L 205.50 609.50 L 150.50 609.38 L 149.95 580.00 L 198.00 580.00 L 198.00 569.00 L 175.58 569.00 C163.25,569.00 152.45,568.73 151.58,568.39 C150.25,567.88 150.00,565.73 150.00,554.91 L 150.00 542.03 L 176.75 541.77 L 203.50 541.50 L 203.80 535.75 L 204.10 530.00 ZM 652.42 621.08 C652.79,621.46 687.02,621.49 712.25,621.14 L 722.00 621.00 L 722.00 608.94 L 666.50 609.12 L 666.22 594.56 L 665.95 580.00 L 714.00 580.00 L 714.00 569.00 L 691.58 569.00 C679.25,569.00 668.45,568.73 667.58,568.39 C666.25,567.88 666.00,565.73 666.00,554.91 L 666.00 542.03 L 692.75 541.77 L 719.50 541.50 L 719.80 535.75 L 720.10 530.00 L 652.00 530.00 L 652.00 575.33 C652.00,600.27 652.19,620.85 652.42,621.08 ZM 799.00 622.06 C804.46,623.08 820.17,622.48 825.01,621.06 C830.96,619.33 839.28,613.71 842.32,609.37 C847.96,601.32 846.93,587.26 840.20,580.43 C836.25,576.42 827.21,572.70 812.50,569.02 C805.35,567.23 798.38,565.19 797.00,564.48 C790.06,560.90 787.42,553.88 790.91,548.30 C794.15,543.12 798.12,541.64 810.00,541.21 C819.47,540.86 821.18,541.08 827.50,543.48 C831.35,544.94 835.20,546.36 836.05,546.63 C837.14,546.98 838.28,545.66 839.92,542.17 C841.20,539.44 841.97,536.76 841.63,536.21 C840.44,534.29 827.80,529.95 820.36,528.92 C799.55,526.02 780.73,533.68 776.17,546.90 C774.60,551.45 774.69,559.32 776.35,563.28 C779.83,571.55 788.17,576.30 808.30,581.46 C815.88,583.40 823.38,585.66 824.96,586.48 C829.43,588.79 832.00,592.73 832.00,597.29 C832.00,600.66 831.37,601.91 828.13,604.99 C819.36,613.34 799.82,612.68 784.63,603.54 C781.40,601.59 778.42,600.00 778.00,600.00 C776.87,600.00 772.83,609.91 773.51,611.02 C775.38,614.04 790.02,620.38 799.00,622.06 ZM 595.73 621.27 C598.90,621.47 602.17,621.60 603.00,621.56 C604.30,621.48 604.53,616.23 604.76,581.76 L 605.02 542.05 L 620.76 541.78 L 636.50 541.50 L 636.80 535.75 L 637.10 530.00 L 557.90 530.00 L 558.20 535.75 L 558.50 541.50 L 574.50 541.77 L 590.50 542.05 L 589.96 620.90 ZM 885.42 621.08 C885.64,621.31 888.68,621.42 892.17,621.33 L 898.50 621.16 L 898.76 581.61 L 899.02 542.05 L 914.76 541.78 L 930.50 541.50 L 930.80 535.75 L 931.10 530.00 L 853.00 530.00 L 853.00 542.00 L 885.00 542.00 L 885.00 581.33 C885.00,602.97 885.19,620.85 885.42,621.08 ZM 55.60 620.40 C56.13,621.79 59.76,621.92 87.35,621.55 C104.48,621.32 118.84,621.11 119.25,621.07 C119.66,621.03 120.00,618.30 120.00,615.00 L 120.00 609.00 L 70.00 609.00 L 70.00 530.00 L 55.00 530.00 L 55.00 574.42 C55.00,598.85 55.27,619.54 55.60,620.40 ZM 517.55 579.91 C511.12,581.10 488.75,581.41 487.67,580.33 C487.30,579.97 487.00,571.16 487.00,560.77 L 487.00 541.87 L 522.84 542.50 L 527.17 545.53 C533.29,549.80 535.18,553.93 534.78,562.11 C534.51,567.49 533.94,569.40 531.67,572.36 C528.25,576.85 525.16,578.50 517.55,579.91 ZM 1108.00 578.36 C1104.27,580.03 1100.79,580.46 1087.75,580.81 L 1072.00 581.24 L 1072.00 541.83 L 1089.25 542.17 C1104.93,542.48 1106.89,542.72 1110.79,544.80 C1115.64,547.38 1118.58,551.54 1119.53,557.17 C1121.10,566.47 1116.78,574.41 1108.00,578.36 ZM 312.28 579.05 C310.20,579.69 301.64,580.44 293.25,580.73 L 278.00 581.24 L 278.00 541.83 L 295.25 542.17 C311.49,542.48 312.76,542.65 316.85,544.99 C324.18,549.19 327.17,558.91 324.03,568.40 C322.61,572.71 317.32,577.50 312.28,579.05 ZM 645.75 324.75 C639.82,331.10 630.77,322.27 634.37,313.65 C635.56,310.81 636.55,309.99 639.43,309.45 C648.12,307.82 652.24,317.80 645.75,324.75 Z" fill="rgb(1,1,1)"/>
<path d="M 391.41 621.58 C354.72,613.20 340.72,569.44 366.33,543.20 C376.05,533.24 387.11,528.81 402.50,528.71 C418.31,528.61 430.18,533.00 439.42,542.35 C453.50,556.62 457.07,579.23 448.02,596.95 C445.25,602.38 435.79,612.35 430.41,615.50 C419.53,621.88 403.58,624.36 391.41,621.58 ZM 414.14 608.57 C423.81,605.63 431.25,599.05 435.67,589.50 C438.01,584.44 438.44,582.25 438.37,575.50 C438.24,562.47 433.51,553.10 423.96,546.97 C407.38,536.33 383.64,540.35 373.59,555.50 C369.19,562.14 367.71,567.06 367.71,575.01 C367.71,590.57 376.60,603.06 391.30,608.14 C397.57,610.30 407.79,610.50 414.14,608.57 ZM 799.00 622.06 C790.02,620.38 775.38,614.04 773.51,611.02 C772.83,609.91 776.87,600.00 778.00,600.00 C778.42,600.00 781.40,601.59 784.63,603.54 C799.82,612.68 819.36,613.34 828.13,604.99 C831.37,601.91 832.00,600.66 832.00,597.29 C832.00,592.73 829.43,588.79 824.96,586.48 C823.38,585.66 815.88,583.40 808.30,581.46 C788.17,576.30 779.83,571.55 776.35,563.28 C774.69,559.32 774.60,551.45 776.17,546.90 C780.73,533.68 799.55,526.02 820.36,528.92 C827.80,529.95 840.44,534.29 841.63,536.21 C841.97,536.76 841.20,539.44 839.92,542.17 C838.28,545.66 837.14,546.98 836.05,546.63 C835.20,546.36 831.35,544.94 827.50,543.48 C821.18,541.08 819.47,540.86 810.00,541.21 C798.12,541.64 794.15,543.12 790.91,548.30 C787.42,553.88 790.06,560.90 797.00,564.48 C798.38,565.19 805.35,567.23 812.50,569.02 C827.21,572.70 836.25,576.42 840.20,580.43 C846.93,587.26 847.96,601.32 842.32,609.37 C839.28,613.71 830.96,619.33 825.01,621.06 C820.17,622.48 804.46,623.08 799.00,622.06 ZM 976.06 621.44 C966.02,619.27 959.29,615.47 951.44,607.55 C945.88,601.94 943.79,598.95 941.59,593.47 C934.58,576.02 938.42,555.67 951.12,542.97 C957.00,537.09 962.29,533.90 971.00,530.96 C979.71,528.02 995.96,527.77 1004.00,530.44 C1021.21,536.18 1031.70,546.75 1036.17,562.86 C1038.37,570.78 1038.46,577.17 1036.51,586.36 C1031.16,611.60 1003.82,627.47 976.06,621.44 ZM 1003.26 607.14 C1010.19,604.12 1017.25,597.05 1020.43,589.97 C1022.65,585.03 1023.13,582.52 1023.13,575.73 C1023.13,566.22 1021.44,560.58 1016.73,554.42 C1009.52,544.98 997.61,540.24 984.00,541.38 C970.90,542.48 961.04,549.11 955.39,560.61 C952.88,565.72 952.50,567.63 952.52,575.00 C952.54,582.01 953.00,584.47 955.12,589.05 C959.66,598.80 966.93,605.22 977.29,608.61 C983.32,610.59 997.15,609.81 1003.26,607.14 ZM 55.60 620.40 C55.27,619.54 55.00,598.85 55.00,574.42 L 55.00 530.00 L 62.50 530.00 L 70.00 530.00 L 70.00 569.50 L 70.00 609.00 L 95.00 609.00 L 120.00 609.00 L 120.00 615.00 C120.00,618.30 119.66,621.03 119.25,621.07 C118.84,621.11 104.48,621.32 87.35,621.55 C59.76,621.92 56.13,621.79 55.60,620.40 ZM 136.00 575.99 L 136.00 530.00 L 170.05 530.00 L 204.10 530.00 L 203.80 535.75 L 203.50 541.50 L 176.75 541.77 L 150.00 542.03 L 150.00 554.91 C150.00,565.73 150.25,567.88 151.58,568.39 C152.45,568.73 163.25,569.00 175.58,569.00 L 198.00 569.00 L 198.00 574.50 L 198.00 580.00 L 173.97 580.00 L 149.95 580.00 L 150.22 594.69 L 150.50 609.38 L 178.00 609.44 L 205.50 609.50 L 205.79 615.50 L 206.08 621.50 L 171.04 621.74 L 136.00 621.98 L 136.00 575.99 ZM 263.71 621.37 C263.32,620.99 263.00,600.23 263.00,575.26 L 263.00 529.85 L 289.25 530.21 C313.71,530.54 315.89,530.72 321.17,532.82 C332.67,537.41 339.17,546.92 339.38,559.44 C339.54,569.02 337.67,574.76 332.47,580.71 C324.58,589.74 313.54,592.91 289.78,592.97 L 278.05 593.00 L 277.78 607.25 L 277.50 621.50 L 270.96 621.79 C267.36,621.95 264.10,621.76 263.71,621.37 ZM 312.28 579.05 C317.32,577.50 322.61,572.71 324.03,568.40 C327.17,558.91 324.18,549.19 316.85,544.99 C312.76,542.65 311.49,542.48 295.25,542.17 L 278.00 541.83 L 278.00 561.54 L 278.00 581.24 L 293.25 580.73 C301.64,580.44 310.20,579.69 312.28,579.05 ZM 473.71 621.38 C473.32,620.99 473.00,600.24 473.00,575.27 L 473.00 529.88 L 499.25 530.20 C524.12,530.51 525.81,530.65 531.41,532.90 C543.32,537.67 549.50,547.48 549.42,561.50 C549.35,572.97 544.25,581.73 534.23,587.60 C531.54,589.18 530.21,590.56 530.66,591.31 C531.05,591.96 535.82,598.74 541.26,606.37 C546.71,614.00 550.79,620.57 550.33,620.98 C549.87,621.39 546.47,621.50 542.76,621.24 L 536.02 620.77 L 531.16 614.13 C528.48,610.49 524.00,604.20 521.20,600.17 L 516.10 592.83 L 501.58 592.67 L 487.05 592.50 L 486.78 607.00 L 486.50 621.50 L 480.46 621.79 C477.14,621.95 474.10,621.77 473.71,621.38 ZM 517.55 579.91 C525.16,578.50 528.25,576.85 531.67,572.36 C533.94,569.40 534.51,567.49 534.78,562.11 C535.18,553.93 533.29,549.80 527.17,545.53 L 522.84 542.50 L 504.92 542.19 L 487.00 541.87 L 487.00 560.77 C487.00,571.16 487.30,579.97 487.67,580.33 C488.75,581.41 511.12,581.10 517.55,579.91 ZM 595.73 621.27 L 589.96 620.90 L 590.23 581.47 L 590.50 542.05 L 574.50 541.77 L 558.50 541.50 L 558.20 535.75 L 557.90 530.00 L 597.50 530.00 L 637.10 530.00 L 636.80 535.75 L 636.50 541.50 L 620.76 541.78 L 605.02 542.05 L 604.76 581.76 C604.53,616.23 604.30,621.48 603.00,621.56 C602.17,621.60 598.90,621.47 595.73,621.27 ZM 652.42 621.08 C652.19,620.85 652.00,600.27 652.00,575.33 L 652.00 530.00 L 686.05 530.00 L 720.10 530.00 L 719.80 535.75 L 719.50 541.50 L 692.75 541.77 L 666.00 542.03 L 666.00 554.91 C666.00,565.73 666.25,567.88 667.58,568.39 C668.45,568.73 679.25,569.00 691.58,569.00 L 714.00 569.00 L 714.00 574.50 L 714.00 580.00 L 689.97 580.00 L 665.95 580.00 L 666.22 594.56 L 666.50 609.12 L 694.25 609.03 L 722.00 608.94 L 722.00 614.97 L 722.00 621.00 L 712.25 621.14 C687.02,621.49 652.79,621.46 652.42,621.08 ZM 885.42 621.08 C885.19,620.85 885.00,602.97 885.00,581.33 L 885.00 542.00 L 869.00 542.00 L 853.00 542.00 L 853.00 536.00 L 853.00 530.00 L 892.05 530.00 L 931.10 530.00 L 930.80 535.75 L 930.50 541.50 L 914.76 541.78 L 899.02 542.05 L 898.76 581.61 L 898.50 621.16 L 892.17 621.33 C888.68,621.42 885.64,621.31 885.42,621.08 ZM 1058.75 621.42 C1058.34,621.01 1058.00,600.24 1058.00,575.27 L 1058.00 529.88 L 1083.75 530.20 C1107.99,530.51 1109.84,530.67 1115.33,532.87 C1122.71,535.83 1127.41,539.94 1130.78,546.41 C1133.07,550.81 1133.43,552.72 1133.44,560.50 C1133.44,567.51 1132.98,570.51 1131.35,574.09 C1128.84,579.58 1123.86,584.76 1118.45,587.50 C1116.28,588.60 1114.35,589.58 1114.16,589.68 C1113.97,589.77 1118.78,596.75 1124.84,605.18 L 1135.86 620.50 L 1128.31 620.79 C1121.98,621.04 1120.53,620.80 1119.42,619.29 C1118.69,618.31 1114.10,611.88 1109.23,605.00 C1104.36,598.12 1099.85,592.54 1099.19,592.60 C1098.54,592.66 1092.15,592.77 1085.00,592.85 L 1072.00 593.00 L 1072.00 607.00 L 1072.00 621.00 L 1069.25 621.01 C1067.74,621.02 1064.93,621.28 1063.00,621.60 C1061.07,621.92 1059.16,621.84 1058.75,621.42 ZM 1108.00 578.36 C1116.78,574.41 1121.10,566.47 1119.53,557.17 C1118.58,551.54 1115.64,547.38 1110.79,544.80 C1106.89,542.72 1104.93,542.48 1089.25,542.17 L 1072.00 541.83 L 1072.00 561.54 L 1072.00 581.24 L 1087.75 580.81 C1100.79,580.46 1104.27,580.03 1108.00,578.36 ZM 1155.63 619.00 C1154.93,615.62 1154.97,536.22 1155.67,532.75 L 1156.23 530.00 L 1190.20 530.00 L 1224.16 530.00 L 1223.83 535.75 L 1223.50 541.50 L 1196.72 541.77 L 1169.94 542.03 L 1170.22 555.27 L 1170.50 568.50 L 1194.25 568.50 L 1218.00 568.50 L 1218.00 574.25 L 1218.00 580.00 L 1194.00 580.00 L 1170.00 580.00 L 1170.00 594.75 L 1170.00 609.51 L 1198.00 609.15 L 1226.00 608.80 L 1226.00 614.90 L 1226.00 621.00 L 1208.25 621.22 C1198.49,621.35 1182.77,621.46 1173.33,621.47 L 1156.15 621.50 L 1155.63 619.00 ZM 445.00 476.75 C445.00,476.06 444.99,419.92 444.98,352.00 C444.96,234.79 445.06,227.84 446.90,215.48 C454.00,167.89 483.97,122.43 525.50,96.27 C533.51,91.22 552.74,82.33 562.56,79.13 C581.95,72.82 591.25,71.50 616.00,71.54 C636.55,71.57 639.59,71.81 651.10,74.26 C667.49,77.76 678.63,81.74 694.00,89.60 C721.34,103.57 742.45,122.75 759.95,149.50 C771.39,166.99 780.11,189.41 784.66,213.00 C787.08,225.59 787.30,229.11 787.88,265.06 L 788.50 303.61 L 792.43 311.56 C797.55,321.92 804.97,329.40 815.09,334.40 C819.27,336.46 824.67,338.37 827.09,338.64 C829.52,338.90 832.51,339.33 833.75,339.58 L 836.00 340.04 L 836.00 409.03 L 836.00 478.02 L 789.75 477.76 L 743.50 477.50 L 743.30 369.50 C743.05,232.43 742.94,227.55 739.68,214.00 C731.35,179.28 710.83,151.67 678.94,132.25 C662.13,122.01 638.84,115.80 617.00,115.71 C549.40,115.46 495.46,164.96 489.08,233.10 C488.39,240.42 488.01,286.25 488.00,361.25 L 488.00 478.00 L 466.50 478.00 C449.97,478.00 445.00,477.71 445.00,476.75 ZM 499.83 410.59 C499.74,373.69 499.78,318.30 499.92,287.50 C500.14,238.26 500.39,230.35 501.99,222.00 C506.68,197.46 516.94,177.68 533.38,161.50 C543.63,151.40 552.87,145.44 564.60,141.31 C571.84,138.76 573.70,138.53 587.00,138.54 C599.52,138.54 602.31,138.84 607.43,140.76 C616.99,144.33 623.92,148.96 632.50,157.50 C646.60,171.52 655.66,189.97 659.51,212.50 C660.82,220.10 661.15,239.70 661.67,338.64 L 662.28 455.78 L 659.39 456.37 C657.80,456.69 640.97,459.00 622.00,461.50 C603.03,464.00 582.78,466.69 577.00,467.48 C571.22,468.27 554.12,470.53 539.00,472.50 C523.88,474.47 508.91,476.44 505.75,476.88 L 500.00 477.68 L 499.83 410.59 ZM 645.75 324.75 C652.24,317.80 648.12,307.82 639.43,309.45 C636.55,309.99 635.56,310.81 634.37,313.65 C630.77,322.27 639.82,331.10 645.75,324.75 Z" fill="rgb(252,252,252)"/>
</g>
</svg>